<svg width="109" height="56" viewBox="0 0 109 56" fill="none" xmlns="http://www.w3.org/2000/svg">
<g id="archie_drinks_logo">
<path id="Vector" d="M71.4362 25.8347H75.3161V14.3828C75.3161 9.91055 71.6862 6.285 67.2085 6.285C65.7141 6.285 64.323 6.69749 63.1167 7.39763V0H59.0955V25.8347H63.1167V14.3665C63.1167 12.0707 64.9805 10.2091 67.2791 10.2091C69.5777 10.2091 71.4416 12.0707 71.4416 14.3665V25.8347H71.4362Z" fill="white"/>
<path id="Vector_2" d="M16.025 8.36906C14.3405 7.06647 12.2375 6.28491 9.94432 6.28491C4.45049 6.28491 0 10.73 0 16.2172C0 21.7043 4.45049 26.1494 9.94432 26.1494C12.2375 26.1494 14.3459 25.3679 16.025 24.0653V25.8401H20.0462V6.59971H16.025V8.37449V8.36906ZM9.94432 22.3665C6.58607 22.3665 3.86361 19.6473 3.86361 16.2932C3.86361 12.939 6.58607 10.2198 9.94432 10.2198C13.3026 10.2198 16.025 12.939 16.025 16.2932C16.025 19.6473 13.3026 22.3665 9.94432 22.3665Z" fill="white"/>
<path id="Vector_3" d="M28.8276 6.59971H24.8064V25.8346H28.8276V16.2172C28.8711 12.8956 31.5718 10.2198 34.9083 10.2198V6.28491C32.6151 6.28491 30.5067 7.06647 28.8276 8.36906V6.59428V6.59971Z" fill="white"/>
<path id="Vector_4" d="M55.9764 20.1084H51.564C50.45 21.4815 48.7546 22.3716 46.8472 22.3716C43.489 22.3716 40.7665 19.6525 40.7665 16.2983C40.7665 12.9441 43.489 10.225 46.8472 10.225C48.6839 10.225 50.3141 11.0445 51.4281 12.3308H55.9764C54.4603 8.78667 50.9499 6.29004 46.8418 6.29004C41.3479 6.29004 36.8975 10.7351 36.8975 16.2223C36.8975 21.7095 41.3479 26.1546 46.8418 26.1546C50.9499 26.1546 54.4549 23.6634 55.9764 20.1138V20.1084Z" fill="white"/>
<path id="Vector_5" d="M108.034 16.2172C108.034 10.73 103.584 6.28491 98.0901 6.28491C92.5962 6.28491 88.1458 10.73 88.1458 16.2172C88.1458 21.7043 92.5962 26.1494 98.0901 26.1494C102.225 26.1494 105.774 23.6257 107.268 20.0381H102.85C101.736 21.4547 100.03 22.3719 98.0901 22.3719C95.2154 22.3719 92.8136 20.3475 92.1778 17.6717H107.915C107.985 17.1941 108.034 16.7165 108.034 16.2172ZM92.2811 14.4912C93.0527 12.0163 95.3622 10.2198 98.0901 10.2198C100.818 10.2198 103.127 12.0163 103.899 14.4912H92.2811Z" fill="white"/>
<path id="Vector_6" d="M84.51 6.59937H80.4888V25.8343H84.51V6.59937Z" fill="white"/>
<path id="Vector_7" d="M84.51 0H80.4888V4.01632H84.51V0Z" fill="white"/>
<path id="Vector_8" d="M82.4079 36.4457L75.4197 44.8583V29.8459H71.4365V55.6807H75.4197V47.4092L82.5492 55.6807H87.9343L79.0551 46.0795L87.9343 36.4457H82.4079Z" fill="white"/>
<path id="Vector_9" d="M28.8276 36.4457H24.8064V55.6806H28.8276V46.0631C28.8711 42.7415 31.5718 40.0658 34.9083 40.0658V36.1309C32.6151 36.1309 30.5067 36.9124 28.8276 38.215V36.4402V36.4457Z" fill="white"/>
<path id="Vector_10" d="M44.1901 36.4453H40.1689V55.6802H44.1901V36.4453Z" fill="white"/>
<path id="Vector_11" d="M44.1901 29.8459H40.1689V33.8623H44.1901V29.8459Z" fill="white"/>
<path id="Vector_12" d="M16.025 38.2197C14.3405 36.9171 12.2375 36.1355 9.94432 36.1355C4.45049 36.1355 0 40.5806 0 46.0678C0 51.555 4.45049 56 9.94432 56C12.2375 56 14.3459 55.2185 16.025 53.9159V55.6907H20.0462V29.856H16.025V38.2251V38.2197ZM9.94432 52.2171C6.58607 52.2171 3.86361 49.4979 3.86361 46.1438C3.86361 42.7896 6.58607 40.0704 9.94432 40.0704C13.3026 40.0704 16.025 42.7896 16.025 46.1438C16.025 49.4979 13.3026 52.2171 9.94432 52.2171Z" fill="white"/>
<path id="Vector_13" d="M57.8132 36.1309C56.3189 36.1309 54.9278 36.5433 53.7214 37.2435V36.4457H49.7002V55.6806H53.9225C53.9442 52.7498 53.9768 46.5462 53.9768 44.3806C53.9768 43.4362 55.4114 42.4756 55.6831 42.3507V42.1282H55.5472C55.4223 42.1282 55.319 42.0251 55.319 41.9003V40.6139C55.319 40.4891 55.4223 40.386 55.5472 40.386H60.0684C60.1934 40.386 60.2966 40.4891 60.2966 40.6139V41.9003C60.2966 42.0251 60.1934 42.1282 60.0684 42.1282H59.9325V42.3507C60.2042 42.4756 61.6388 43.4308 61.6388 44.3806C61.6388 46.5462 61.6714 52.7443 61.6932 55.6806H65.9154V44.2286C65.9154 39.7564 62.2855 36.1309 57.8078 36.1309H57.8132Z" fill="white"/>
<path id="Vector_14" d="M100.987 44.4403L97.1774 44.0387C95.6558 43.8379 94.2158 43.3114 94.2158 41.9274C94.2158 40.386 95.9058 39.6587 98.4489 39.6587C100.563 39.6587 102.372 40.9559 102.796 42.1716H107.084C106.241 38.7252 102.682 36.1309 98.4489 36.1309C93.58 36.1309 90.1946 38.5624 90.1946 42.1716C90.1946 45.211 92.9062 47.0781 96.3351 47.6045C97.0143 47.7294 99.4271 47.9682 100.144 48.0496C102.052 48.2938 103.106 48.9017 103.106 50.1174C103.106 51.5394 101.416 52.4295 98.8728 52.4295C96.6774 52.4295 94.4875 51.458 93.7974 49.8841H89.5806C90.4283 53.3305 94.8516 55.9954 98.8728 55.9954C103.53 55.9954 107.127 53.3576 107.127 49.9112C107.127 46.4648 104.377 44.8419 100.987 44.4403Z" fill="white"/>
</g>
</svg>
