<svg width="463" height="240" viewBox="0 0 463 240" fill="none" xmlns="http://www.w3.org/2000/svg">
<path d="M306.152 110.719H322.78V61.6399C322.78 42.4734 307.223 26.9355 288.034 26.9355C281.629 26.9355 275.667 28.7033 270.497 31.7038V0H253.264V110.719H270.497V61.5701C270.497 51.731 278.485 43.7527 288.336 43.7527C298.187 43.7527 306.175 51.731 306.175 61.5701V110.719H306.152Z" fill="#060606"/>
<path d="M68.678 35.8674C61.4585 30.2849 52.4459 26.9354 42.6181 26.9354C19.0733 26.9354 0 45.9856 0 69.5018C0 93.018 19.0733 112.068 42.6181 112.068C52.4459 112.068 61.4818 108.719 68.678 103.136V110.742H85.9115V28.2845H68.678V35.8907V35.8674ZM42.6181 95.8558C28.2258 95.8558 16.5582 84.2024 16.5582 69.8275C16.5582 55.4526 28.2258 43.7992 42.6181 43.7992C57.0104 43.7992 68.678 55.4526 68.678 69.8275C68.678 84.2024 57.0104 95.8558 42.6181 95.8558Z" fill="#060606"/>
<path d="M123.544 28.2845H106.311V110.719H123.544V69.5018C123.73 55.2665 135.305 43.7992 149.604 43.7992V26.9354C139.776 26.9354 130.74 30.2849 123.544 35.8674V28.2613V28.2845Z" fill="#060606"/>
<path d="M239.897 86.1797H220.987C216.213 92.0645 208.947 95.8792 200.772 95.8792C186.38 95.8792 174.712 84.2258 174.712 69.8509C174.712 55.476 186.38 43.8226 200.772 43.8226C208.644 43.8226 215.63 47.3349 220.405 52.8476H239.897C233.4 37.6586 218.355 26.9589 200.749 26.9589C177.204 26.9589 158.131 46.0091 158.131 69.5253C158.131 93.0415 177.204 112.092 200.749 112.092C218.355 112.092 233.376 101.415 239.897 86.2029V86.1797Z" fill="#060606"/>
<path d="M463 69.5018C463 45.9856 443.927 26.9354 420.382 26.9354C396.837 26.9354 377.764 45.9856 377.764 69.5018C377.764 93.018 396.837 112.068 420.382 112.068C438.104 112.068 453.312 101.252 459.716 85.8771H440.783C436.009 91.9481 428.696 95.8791 420.382 95.8791C408.062 95.8791 397.769 87.203 395.044 75.7356H462.488C462.79 73.6887 463 71.6418 463 69.5018ZM395.486 62.1051C398.793 51.4983 408.691 43.7992 420.382 43.7992C432.073 43.7992 441.97 51.4983 445.277 62.1051H395.486Z" fill="#060606"/>
<path d="M362.183 28.2844H344.949V110.719H362.183V28.2844Z" fill="#060606"/>
<path d="M362.183 0H344.949V17.2126H362.183V0Z" fill="#060606"/>
<path d="M353.172 156.193L323.223 192.247V127.909H306.152V238.628H323.223V203.179L353.778 238.628H376.857L338.803 197.48L376.857 156.193H353.172Z" fill="#060606"/>
<path d="M123.544 156.193H106.311V238.628H123.544V197.41C123.73 183.175 135.305 171.708 149.604 171.708V154.844C139.776 154.844 130.74 158.193 123.544 163.776V156.17V156.193Z" fill="#060606"/>
<path d="M189.384 156.193H172.15V238.628H189.384V156.193Z" fill="#060606"/>
<path d="M189.384 127.909H172.15V145.121H189.384V127.909Z" fill="#060606"/>
<path d="M68.678 163.799C61.4585 158.217 52.4459 154.867 42.6181 154.867C19.0733 154.867 0 173.917 0 197.434C0 220.95 19.0733 240 42.6181 240C52.4459 240 61.4818 236.65 68.678 231.068V238.674H85.9115V127.955H68.678V163.822V163.799ZM42.6181 223.788C28.2258 223.788 16.5582 212.134 16.5582 197.759C16.5582 183.384 28.2258 171.731 42.6181 171.731C57.0104 171.731 68.678 183.384 68.678 197.759C68.678 212.134 57.0104 223.788 42.6181 223.788Z" fill="#060606"/>
<path d="M247.768 154.844C241.364 154.844 235.402 156.612 230.232 159.612V156.193H212.998V238.628H231.093C231.187 226.067 231.326 199.481 231.326 190.2C231.326 186.152 237.474 182.035 238.639 181.5V180.547H238.057C237.521 180.547 237.079 180.105 237.079 179.57V174.057C237.079 173.522 237.521 173.08 238.057 173.08H257.433C257.968 173.08 258.411 173.522 258.411 174.057V179.57C258.411 180.105 257.968 180.547 257.433 180.547H256.851V181.5C258.015 182.035 264.163 186.129 264.163 190.2C264.163 199.481 264.303 226.044 264.396 238.628H282.491V189.548C282.491 170.382 266.935 154.844 247.745 154.844H247.768Z" fill="#060606"/>
<path d="M432.795 190.456L416.47 188.734C409.949 187.874 403.777 185.617 403.777 179.686C403.777 173.08 411.02 169.963 421.919 169.963C430.978 169.963 438.734 175.522 440.55 180.733H458.925C455.315 165.962 440.061 154.844 421.919 154.844C401.053 154.844 386.544 165.265 386.544 180.733C386.544 193.759 398.165 201.76 412.86 204.016C415.771 204.551 426.111 205.575 429.185 205.924C437.359 206.97 441.877 209.576 441.877 214.786C441.877 220.88 434.635 224.695 423.736 224.695C414.327 224.695 404.942 220.531 401.984 213.786H383.912C387.545 228.556 406.502 239.977 423.736 239.977C443.694 239.977 459.111 228.672 459.111 213.902C459.111 199.132 447.327 192.177 432.795 190.456Z" fill="#060606"/>
</svg>
