<svg width="141" height="73" viewBox="0 0 141 73" fill="none" xmlns="http://www.w3.org/2000/svg">
<g clip-path="url(#clip0_1_80)">
<path d="M93.2353 33.6803H98.2991V18.7506C98.2991 12.9202 93.5615 8.19366 87.7176 8.19366C85.7672 8.19366 83.9516 8.73141 82.3771 9.64418V0H77.1289V33.6803H82.3771V18.7294C82.3771 15.7364 84.8098 13.3094 87.8098 13.3094C90.8098 13.3094 93.2424 15.7364 93.2424 18.7294V33.6803H93.2353Z" fill="white"/>
<path d="M20.9149 10.9109C18.7163 9.21275 15.9716 8.19385 12.9787 8.19385C5.80851 8.19385 0 13.9888 0 21.1424C0 28.2959 5.80851 34.0909 12.9787 34.0909C15.9716 34.0909 18.7234 33.072 20.9149 31.3738V33.6876H26.1631V8.60424H20.9149V10.918V10.9109ZM12.9787 29.1591C8.59574 29.1591 5.04255 25.6142 5.04255 21.2414C5.04255 16.8687 8.59574 13.3237 12.9787 13.3237C17.3617 13.3237 20.9149 16.8687 20.9149 21.2414C20.9149 25.6142 17.3617 29.1591 12.9787 29.1591Z" fill="white"/>
<path d="M37.6232 8.60375H32.375V33.68H37.6232V21.1419C37.68 16.8116 41.2048 13.3232 45.5594 13.3232V8.19336C42.5665 8.19336 39.8147 9.21226 37.6232 10.9104V8.59667V8.60375Z" fill="white"/>
<path d="M73.0567 26.2154H67.2978C65.8439 28.0056 63.6312 29.166 61.1418 29.166C56.7588 29.166 53.2056 25.6211 53.2056 21.2483C53.2056 16.8755 56.7588 13.3306 61.1418 13.3306C63.539 13.3306 65.6666 14.399 67.1205 16.0759H73.0567C71.078 11.4555 66.4964 8.20068 61.1347 8.20068C53.9645 8.20068 48.156 13.9957 48.156 21.1492C48.156 28.3027 53.9645 34.0977 61.1347 34.0977C66.4964 34.0977 71.0709 30.85 73.0567 26.2225V26.2154Z" fill="white"/>
<path d="M141 21.1419C141 13.9884 135.192 8.19336 128.022 8.19336C120.851 8.19336 115.043 13.9884 115.043 21.1419C115.043 28.2954 120.851 34.0904 128.022 34.0904C133.419 34.0904 138.05 30.8002 140 26.1232H134.234C132.781 27.9699 130.554 29.1657 128.022 29.1657C124.27 29.1657 121.135 26.5265 120.305 23.0382H140.844C140.937 22.4155 141 21.7929 141 21.1419ZM120.44 18.8918C121.447 15.6653 124.461 13.3232 128.022 13.3232C131.582 13.3232 134.596 15.6653 135.603 18.8918H120.44Z" fill="white"/>
<path d="M110.297 8.604H105.049V33.6803H110.297V8.604Z" fill="white"/>
<path d="M110.297 0H105.049V5.23602H110.297V0Z" fill="white"/>
<path d="M107.554 47.5132L98.4329 58.4806V38.9092H93.2344V72.5895H98.4329V61.8061L107.738 72.5895H114.766L103.178 60.0726L114.766 47.5132H107.554Z" fill="white"/>
<path d="M37.6232 47.5134H32.375V72.5897H37.6232V60.0516C37.68 55.7212 41.2048 52.2329 45.5594 52.2329V47.103C42.5665 47.103 39.8147 48.1219 37.6232 49.8201V47.5063V47.5134Z" fill="white"/>
<path d="M57.674 47.5137H52.4258V72.59H57.674V47.5137Z" fill="white"/>
<path d="M57.674 38.9092H52.4258V44.1452H57.674V38.9092Z" fill="white"/>
<path d="M20.9149 49.827C18.7163 48.1288 15.9716 47.1099 12.9787 47.1099C5.80851 47.1099 0 52.9049 0 60.0585C0 67.212 5.80851 73.007 12.9787 73.007C15.9716 73.007 18.7234 71.9881 20.9149 70.2899V72.6037H26.1631V38.9233H20.9149V49.8341V49.827ZM12.9787 68.0752C8.59574 68.0752 5.04255 64.5303 5.04255 60.1575C5.04255 55.7847 8.59574 52.2398 12.9787 52.2398C17.3617 52.2398 20.9149 55.7847 20.9149 60.1575C20.9149 64.5303 17.3617 68.0752 12.9787 68.0752Z" fill="white"/>
<path d="M75.4539 47.103C73.5035 47.103 71.6879 47.6408 70.1135 48.5535V47.5134H64.8652V72.5897H70.3759C70.4042 68.7688 70.4468 60.6813 70.4468 57.8581C70.4468 56.6269 72.3191 55.3745 72.6737 55.2118V54.9217H72.4964C72.3333 54.9217 72.1986 54.7872 72.1986 54.6245V52.9476C72.1986 52.7848 72.3333 52.6504 72.4964 52.6504H78.3972C78.5603 52.6504 78.695 52.7848 78.695 52.9476V54.6245C78.695 54.7872 78.5603 54.9217 78.3972 54.9217H78.2198V55.2118C78.5745 55.3745 80.4468 56.6198 80.4468 57.8581C80.4468 60.6813 80.4893 68.7617 80.5177 72.5897H86.0284V57.66C86.0284 51.8296 81.2908 47.103 75.4468 47.103H75.4539Z" fill="white"/>
<path d="M131.801 57.9359L126.829 57.4123C124.843 57.1505 122.964 56.4642 122.964 54.6599C122.964 52.6504 125.169 51.7022 128.489 51.7022C131.247 51.7022 133.609 53.3933 134.162 54.9783H139.758C138.659 50.4852 134.013 47.103 128.489 47.103C122.134 47.103 117.715 50.2729 117.715 54.9783C117.715 58.9407 121.254 61.3747 125.73 62.0611C126.616 62.2238 129.765 62.5351 130.701 62.6413C133.191 62.9597 134.567 63.7521 134.567 65.3371C134.567 67.1909 132.361 68.3514 129.042 68.3514C126.176 68.3514 123.318 67.0848 122.418 65.0329H116.914C118.02 69.5259 123.793 73.0001 129.042 73.0001C135.12 73.0001 139.815 69.5613 139.815 65.0682C139.815 60.5752 136.226 58.4595 131.801 57.9359Z" fill="white"/>
</g>
<defs>
<clipPath id="clip0_1_80">
<rect width="141" height="73" fill="white"/>
</clipPath>
</defs>
</svg>
