<svg width="244" height="242" viewBox="0 0 244 242" fill="none" xmlns="http://www.w3.org/2000/svg">
<g clip-path="url(#clip0_1_121)">
<path d="M20.0882 115.968C18.5283 117.404 16.6768 118.137 14.5292 118.168L14.7943 115.654C16.2084 115.579 17.4854 115.071 18.6255 114.134C19.7656 113.198 20.4373 111.735 20.645 109.738C20.7599 108.629 20.6936 107.609 20.4373 106.672C20.1854 105.735 19.7523 104.953 19.147 104.33C18.5416 103.707 17.7462 103.345 16.7652 103.243C15.7841 103.142 14.949 103.327 14.2596 103.796C13.5703 104.268 13.0179 104.962 12.6025 105.877C12.1871 106.791 11.9132 107.869 11.785 109.102L10.2207 108.938C10.5079 106.186 11.215 104.092 12.3418 102.66C13.4686 101.229 15.0108 100.615 16.9728 100.818C18.3957 100.968 19.5756 101.481 20.5036 102.364C21.436 103.248 22.0944 104.361 22.4788 105.713C22.8633 107.065 22.9782 108.483 22.8235 109.972C22.5539 112.535 21.6436 114.536 20.0838 115.972L20.0882 115.968ZM9.60207 108.872C9.78324 107.131 9.58439 105.784 8.99226 104.825C8.40454 103.866 7.57378 103.332 6.49556 103.221C5.35548 103.102 4.40541 103.46 3.64977 104.291C2.88971 105.121 2.43457 106.265 2.28432 107.723C2.16501 108.863 2.28432 109.866 2.64225 110.737C3.00019 111.607 3.49511 112.287 4.13143 112.787C4.76776 113.286 5.43502 113.573 6.12879 113.644L5.86365 116.158C4.66171 116.03 3.59232 115.561 2.65109 114.744C1.71428 113.927 1.00725 112.875 0.534426 111.594C0.0616002 110.312 -0.0974814 108.93 0.0571811 107.441C0.203006 106.049 0.587452 104.825 1.21052 103.769C1.83359 102.713 2.6069 101.909 3.52604 101.348C4.4496 100.791 5.46153 100.566 6.57068 100.685C8.15266 100.853 9.38112 101.662 10.2517 103.111C11.1222 104.564 11.4271 106.535 11.1664 109.036L9.60207 108.872Z" fill="black"/>
<path d="M21.0068 95.0923C21.8154 94.8228 22.5092 94.3368 23.0881 93.6387C23.667 92.9407 24.1044 92.141 24.4049 91.2308C24.8203 89.9628 24.9529 88.739 24.7982 87.5682C24.648 86.3974 24.2105 85.3768 23.4902 84.5064C22.7699 83.636 21.7624 82.9866 20.4632 82.5624L22.001 82.4652C23.3311 82.9026 24.4049 83.6272 25.2268 84.6522C26.0488 85.6772 26.5614 86.8613 26.769 88.2221C26.9767 89.5784 26.8397 90.9967 26.3537 92.4812C25.9471 93.7227 25.3329 94.8007 24.5154 95.7197C23.6979 96.6387 22.6992 97.2749 21.5282 97.6283C20.3572 97.9818 19.0315 97.9155 17.5512 97.4295C16.0708 96.9435 14.944 96.1571 14.1795 95.0702C13.415 93.9833 12.9776 92.7021 12.8759 91.2308C12.7743 89.7596 12.9864 88.2044 13.5211 86.5741C13.9365 85.3061 14.4402 84.2722 15.0368 83.4814C15.6289 82.6905 16.2166 82.0764 16.7911 81.6434C17.3656 81.2149 17.8296 80.9233 18.1831 80.7687L19.6325 81.2414C18.7222 81.882 17.9047 82.6596 17.1844 83.5786C16.4641 84.4976 15.872 85.6684 15.408 87.091C15.0103 88.3016 14.8468 89.4415 14.9131 90.5195C14.9793 91.5976 15.2843 92.5254 15.8322 93.3074C16.3801 94.0894 17.1844 94.6549 18.2405 94.9995C19.2701 95.3353 20.1848 95.3706 20.9935 95.0967L21.0068 95.0923ZM5.63331 91.518C5.2577 90.5239 4.97047 89.3001 4.77604 87.851C4.5816 86.3974 4.77604 84.7803 5.35934 82.9954C5.85426 81.4844 6.54361 80.2782 7.42297 79.3769C8.30234 78.4756 9.32311 77.8968 10.4765 77.6406C11.6342 77.3843 12.8892 77.4771 14.2502 77.9234L29.036 82.7612L28.2626 85.1205L13.4769 80.2827C12.054 79.8187 10.8123 79.9071 9.75175 80.5433C8.68679 81.184 7.9179 82.2266 7.44507 83.6802C7.11807 84.6787 6.95015 85.6286 6.94131 86.5255C6.93247 87.4268 7.02085 88.253 7.21087 88.9997C7.40088 89.7508 7.60857 90.3958 7.83394 90.9348L5.63331 91.518Z" fill="black"/>
<path d="M13.6942 64.2975L32.7354 75.2236L31.4981 77.3752L12.4569 66.4491L13.6942 64.2975ZM19.9647 53.3714L22.6735 66.8645L39.4566 63.5111L37.8878 66.2415L21.1048 69.5949L18.3739 56.1416L19.9647 53.367L19.9647 53.3714Z" fill="black"/>
<path d="M39.6073 57.2503C40.4557 57.3254 41.2865 57.1531 42.0951 56.7422C42.9038 56.3313 43.6241 55.7702 44.256 55.0545C45.1398 54.056 45.7452 52.9868 46.0722 51.8513C46.3992 50.7159 46.4036 49.6069 46.0898 48.52C45.7761 47.4332 45.1044 46.4391 44.0837 45.5334L45.5375 46.0547C46.5848 46.9825 47.283 48.0782 47.6321 49.3418C47.9811 50.6054 47.9811 51.8999 47.6321 53.2298C47.283 54.5597 46.5936 55.8056 45.5596 56.972C44.6935 57.9484 43.7036 58.6951 42.5856 59.2164C41.4676 59.7377 40.301 59.9233 39.0858 59.7863C37.8706 59.645 36.6819 59.0618 35.5109 58.0279C34.3443 56.9941 33.624 55.8277 33.3545 54.5243C33.0849 53.221 33.191 51.8734 33.6815 50.4817C34.172 49.09 34.9851 47.7469 36.1252 46.4612C37.0089 45.4627 37.8839 44.716 38.7456 44.2212C39.6073 43.7308 40.385 43.3994 41.0876 43.2315C41.7858 43.0636 42.3293 42.9797 42.7138 42.9797L43.8583 43.9914C42.7668 44.2168 41.7107 44.6056 40.6855 45.1667C39.6603 45.7234 38.6528 46.5628 37.663 47.685C36.8189 48.6393 36.2135 49.6202 35.8468 50.6363C35.48 51.6525 35.3916 52.6245 35.5861 53.5612C35.7805 54.4978 36.2931 55.3328 37.1238 56.0707C37.9325 56.7864 38.7633 57.1841 39.6117 57.2547L39.6073 57.2503ZM26.9117 47.8662C26.9603 46.8058 27.1812 45.5687 27.579 44.1593C27.9767 42.7499 28.7986 41.3405 30.0403 39.9356C31.0964 38.7427 32.2056 37.9121 33.3678 37.4349C34.5343 36.9577 35.6965 36.8296 36.8587 37.0505C38.0209 37.2714 39.1389 37.859 40.2127 38.8045L51.8654 49.1121L50.2215 50.9721L38.5688 40.6646C37.4508 39.6749 36.2754 39.2596 35.0425 39.4275C33.8141 39.5954 32.6917 40.2493 31.6797 41.3891C30.9859 42.1756 30.4513 42.9797 30.0845 43.8015C29.7177 44.6232 29.4747 45.4185 29.3509 46.1784C29.2272 46.9428 29.1609 47.6143 29.1521 48.2019L26.8984 47.8662L26.9117 47.8662Z" fill="black"/>
<path d="M56.9552 42.5511C54.8429 42.37 53.0533 41.4996 51.5818 39.9356L53.6145 38.4334C54.6264 39.4275 55.8593 40.0283 57.3175 40.236C58.7758 40.4437 60.3136 39.9532 61.9221 38.7603C62.8191 38.0976 63.5261 37.3598 64.0476 36.538C64.569 35.7162 64.8562 34.8724 64.9048 34.0064C64.9534 33.1405 64.6883 32.3098 64.1006 31.5146C63.5129 30.7237 62.8147 30.2289 62.0016 30.0389C61.1885 29.8489 60.3047 29.9108 59.3458 30.22C58.3913 30.5337 57.4103 31.0551 56.4161 31.7929L55.4793 30.5249C57.7064 28.8813 59.7258 27.9889 61.5464 27.8519C63.3626 27.7149 64.8606 28.4395 66.0317 30.0256C66.8845 31.1788 67.2955 32.3938 67.2734 33.675C67.2513 34.9563 66.8713 36.1978 66.1333 37.3951C65.3953 38.5924 64.4276 39.6351 63.2256 40.5232C61.1532 42.0563 59.063 42.7323 56.9508 42.5511L56.9552 42.5511ZM55.1169 30.0256C56.5221 28.9874 57.3838 27.927 57.6931 26.849C58.0025 25.771 57.8345 24.7946 57.1938 23.9242C56.5133 23.0052 55.6074 22.5457 54.485 22.5457C53.3582 22.5457 52.2048 22.9831 51.0294 23.8535C50.1103 24.5339 49.4474 25.2982 49.0453 26.1509C48.6432 26.9992 48.4753 27.8298 48.5371 28.6339C48.599 29.438 48.8376 30.1228 49.253 30.6884L47.2203 32.1905C46.5 31.2185 46.1288 30.1096 46.0979 28.8681C46.0669 27.6222 46.3674 26.3939 46.9905 25.1789C47.618 23.9639 48.5283 22.9124 49.7346 22.0244C50.8615 21.1938 52.0237 20.6503 53.2212 20.3985C54.4187 20.1467 55.5367 20.1732 56.5707 20.4736C57.6048 20.7785 58.4532 21.3749 59.116 22.2718C60.0617 23.5531 60.2915 25.0022 59.8098 26.6237C59.3281 28.2451 58.0732 29.8047 56.0537 31.2981L55.1169 30.0301L55.1169 30.0256Z" fill="black"/>
<path d="M72.9963 29.1289C73.7431 29.5442 74.5694 29.7254 75.4753 29.6812C76.3812 29.637 77.2694 29.4205 78.1399 29.0273C79.3551 28.475 80.3449 27.7504 81.1094 26.8447C81.8695 25.9434 82.329 24.9317 82.4881 23.8139C82.6428 22.6961 82.4395 21.512 81.8783 20.2661L82.9919 21.3353C83.5708 22.6121 83.7563 23.8934 83.5575 25.1923C83.3586 26.4869 82.8284 27.6709 81.9667 28.7401C81.105 29.8093 79.9649 30.6664 78.5464 31.3115C77.3577 31.8505 76.147 32.1288 74.9141 32.1421C73.6812 32.1598 72.5411 31.8549 71.4894 31.232C70.4377 30.609 69.5937 29.584 68.9485 28.1658C68.3078 26.7475 68.1266 25.3867 68.4094 24.0878C68.6922 22.7889 69.3462 21.6048 70.3626 20.5312C71.3789 19.462 72.6693 18.5695 74.2336 17.8626C75.4488 17.3103 76.5535 16.9878 77.5389 16.8906C78.5243 16.7934 79.3728 16.8111 80.0798 16.9436C80.7868 17.0762 81.3127 17.222 81.6662 17.3766L82.2981 18.7683C81.211 18.5298 80.0842 18.4547 78.922 18.543C77.7599 18.6358 76.4961 18.9848 75.1306 19.6034C73.9728 20.1291 73.0184 20.7786 72.2671 21.5562C71.5203 22.3338 71.0387 23.1865 70.8354 24.1187C70.6277 25.051 70.7559 26.0229 71.2154 27.0391C71.6617 28.0244 72.2583 28.7224 73.0051 29.1377L72.9963 29.1289ZM65.2499 15.3796C65.7271 14.4297 66.4386 13.3915 67.3754 12.2692C68.3166 11.147 69.6423 10.1971 71.3524 9.41953C72.8018 8.76564 74.154 8.45636 75.4134 8.49612C76.6728 8.53588 77.7864 8.89817 78.7585 9.57415C79.7307 10.2545 80.5084 11.2442 81.1006 12.5476L87.5169 26.7166L85.2544 27.7416L78.8381 13.5726C78.2194 12.2118 77.318 11.3547 76.1293 11.0012C74.9406 10.6478 73.6503 10.7891 72.2583 11.4165C71.3038 11.8495 70.4863 12.3664 69.819 12.9673C69.1474 13.5682 68.5994 14.1911 68.1752 14.8362C67.751 15.4812 67.4152 16.0688 67.1677 16.6034L65.2499 15.3752L65.2499 15.3796Z" fill="black"/>
<path d="M92.3291 3.30942L97.7069 23.898L95.3074 24.5254L89.9296 3.93679L92.3291 3.30942ZM97.1943 1.34775L97.7864 3.60985L85.3206 6.86603L84.7285 4.60393L97.1943 1.34775Z" fill="black"/>
<path d="M105.652 -0.000141252L107.693 21.852L105.223 22.0818L103.182 0.229612L105.652 -0.000141252ZM105.329 8.36784L111.648 7.78022C113.898 7.56815 115.842 7.93928 117.481 8.88918C119.121 9.83909 120.049 11.4871 120.265 13.8287C120.411 15.3794 120.181 16.6961 119.58 17.7741C118.979 18.8521 118.096 19.6871 116.938 20.2748C115.78 20.8624 114.437 21.2291 112.917 21.3705L106.597 21.9625L106.394 19.7755L112.713 19.1879C113.822 19.0863 114.772 18.8256 115.563 18.4191C116.354 18.0083 116.951 17.4427 117.344 16.7182C117.738 15.9936 117.888 15.11 117.791 14.0629C117.649 12.543 117.044 11.4429 115.97 10.7581C114.901 10.0777 113.526 9.81258 111.847 9.96721L105.528 10.5548L105.325 8.36784L105.329 8.36784Z" fill="black"/>
<path d="M135.576 31.9292L144.025 0.600034L146.42 1.2451L137.971 32.5742L135.576 31.9292ZM158.723 22.2534C157.37 23.6672 155.797 24.6127 154.003 25.0855C152.213 25.5582 150.362 25.5361 148.457 25.0236C146.677 24.542 145.24 23.6363 144.149 22.3064C143.057 20.9766 142.364 19.3728 142.059 17.4951C141.758 15.6173 141.886 13.638 142.452 11.5482C143.022 9.42752 143.91 7.64258 145.108 6.18459C146.305 4.73102 147.715 3.70159 149.328 3.0963C150.941 2.49102 152.638 2.43356 154.418 2.91072C156.323 3.42323 157.932 4.33337 159.244 5.64556C160.556 6.95333 161.44 8.55272 161.904 10.4393C162.368 12.3258 162.289 14.42 161.666 16.7263C161.051 19.0016 160.07 20.844 158.718 22.2578L158.723 22.2534ZM159.447 11.0313C159.067 9.51145 158.356 8.23901 157.313 7.21842C156.27 6.19783 154.997 5.4821 153.491 5.07563C152.2 4.72659 150.866 4.77961 149.491 5.23468C148.117 5.68974 146.897 6.4806 145.837 7.61164C144.772 8.74269 144.016 10.1521 143.561 11.8398C143.106 13.5276 143.053 15.1313 143.402 16.6424C143.751 18.1534 144.405 19.4523 145.369 20.5347C146.327 21.6172 147.454 22.3329 148.745 22.682C150.251 23.0884 151.71 23.1105 153.124 22.7527C154.538 22.3904 155.793 21.6525 156.889 20.5303C157.98 19.4081 158.776 17.9236 159.275 16.0813C159.774 14.2389 159.827 12.5556 159.447 11.0357L159.447 11.0313Z" fill="black"/>
<path d="M168.455 18.1274L182.75 26.0049C183.47 24.6972 183.832 23.3805 183.837 22.0551C183.837 20.7296 183.523 19.5102 182.882 18.3969C182.242 17.2835 181.296 16.3778 180.045 15.6885C178.79 14.9993 177.474 14.6547 176.09 14.6547C174.707 14.6547 173.395 15.0302 172.149 15.7769C170.903 16.5236 169.864 17.6502 169.033 19.1568L168.578 19.8858C167.686 21.5028 167.2 23.0757 167.12 24.6132C167.041 26.1507 167.337 27.5292 168.022 28.7618C168.706 29.9945 169.732 30.9842 171.097 31.7353C172.321 32.4112 173.466 32.7956 174.522 32.8884C175.578 32.9812 176.572 32.8884 177.5 32.6233C178.428 32.3538 179.294 31.9871 180.098 31.5188L181.234 33.613C180.2 34.1697 179.117 34.6159 177.986 34.9561C176.855 35.2963 175.618 35.3935 174.279 35.2565C172.94 35.1152 171.42 34.5806 169.718 33.6439C168.048 32.7249 166.771 31.4569 165.896 29.8487C165.021 28.2405 164.615 26.4556 164.681 24.4939C164.743 22.5323 165.308 20.5883 166.369 18.6664C166.616 18.2201 166.868 17.8093 167.133 17.4249C167.398 17.0449 167.686 16.6694 167.999 16.2938C169.148 15.0037 170.439 14.0141 171.866 13.3292C173.298 12.6444 174.809 12.3352 176.409 12.4014C178.008 12.4633 179.573 12.9183 181.106 13.7622C182.776 14.6856 184.062 15.9094 184.964 17.4425C185.865 18.9712 186.303 20.659 186.289 22.5058C186.272 24.3481 185.733 26.2303 184.676 28.1522C184.584 28.32 184.482 28.4879 184.367 28.6647C184.252 28.837 184.137 29.0004 184.018 29.1506L167.425 20.0095L168.463 18.1274L168.455 18.1274Z" fill="black"/>
<path d="M198.874 52.5372L194.424 57.459L192.793 55.9877L195.675 52.8022L182.184 40.6126L196.903 24.3272L198.746 25.9929L185.595 40.5419L194.199 48.3178L207.349 33.7688L209.192 35.4345L196.041 49.9835L198.874 52.5416L198.874 52.5372Z" fill="black"/>
<path d="M209.582 49.8238L218.866 63.2462C220.094 62.3979 221.005 61.3773 221.601 60.1932C222.193 59.0092 222.454 57.7765 222.379 56.4952C222.304 55.214 221.858 53.9813 221.044 52.8061C220.231 51.6308 219.206 50.734 217.969 50.1198C216.732 49.5057 215.388 49.2539 213.939 49.3688C212.489 49.4836 211.058 50.0271 209.644 51.0035L208.91 51.4541C207.39 52.5056 206.254 53.6985 205.494 55.0328C204.734 56.3671 204.39 57.7412 204.451 59.1461C204.513 60.5511 204.991 61.8942 205.879 63.1799C206.674 64.3286 207.527 65.1813 208.433 65.738C209.339 66.2903 210.267 66.657 211.217 66.8293C212.167 67.0016 213.108 67.059 214.032 66.9972L214.111 69.3786C212.936 69.4139 211.769 69.3344 210.607 69.1356C209.44 68.9323 208.291 68.4728 207.156 67.7527C206.02 67.0325 204.898 65.8706 203.793 64.2756C202.706 62.7072 202.131 61.0062 202.065 59.1771C201.999 57.3479 202.432 55.5674 203.364 53.8399C204.297 52.1124 205.667 50.6235 207.47 49.3732C207.889 49.086 208.3 48.8297 208.707 48.6044C209.113 48.3835 209.542 48.1714 209.988 47.9814C211.592 47.3364 213.188 47.0271 214.77 47.0536C216.356 47.0802 217.85 47.4778 219.25 48.2465C220.656 49.0153 221.853 50.1198 222.847 51.5602C223.934 53.1286 224.54 54.7987 224.659 56.5703C224.783 58.342 224.425 60.0474 223.59 61.691C222.755 63.3345 221.433 64.7793 219.626 66.0296C219.467 66.1401 219.299 66.2461 219.122 66.3477C218.941 66.4538 218.764 66.5465 218.592 66.6261L207.814 51.0476L209.582 49.8282L209.582 49.8238Z" fill="black"/>
<path d="M217.972 91.5098L217.048 89.2079L235.25 81.9003L230.928 71.1376L212.726 78.4453L211.803 76.1434L232.174 67.9654L238.343 83.3318L217.972 91.5098Z" fill="black"/>
<path d="M242.688 101.95L240.399 102.436L237.722 89.835L240.011 89.349L242.688 101.95ZM240.956 97.0012L220.134 101.424L219.617 98.9982L240.439 94.5757L240.956 97.0012Z" fill="black"/>
<path d="M223.784 124.468C225.317 123.006 227.156 122.237 229.303 122.171L229.082 124.689C227.668 124.791 226.4 125.316 225.278 126.275C224.155 127.229 223.51 128.71 223.333 130.702C223.236 131.811 223.324 132.832 223.594 133.768C223.864 134.701 224.31 135.474 224.924 136.088C225.543 136.698 226.343 137.051 227.324 137.135C228.305 137.219 229.135 137.02 229.82 136.538C230.501 136.052 231.04 135.35 231.442 134.427C231.84 133.503 232.096 132.425 232.202 131.188L233.771 131.325C233.532 134.082 232.861 136.185 231.76 137.639C230.66 139.092 229.127 139.733 227.16 139.56C225.733 139.437 224.549 138.942 223.598 138.076C222.653 137.21 221.972 136.106 221.566 134.762C221.155 133.419 221.018 132.001 221.146 130.512C221.371 127.945 222.246 125.93 223.78 124.468L223.784 124.468ZM234.394 131.378C234.244 133.119 234.469 134.466 235.074 135.412C235.68 136.357 236.519 136.879 237.598 136.971C238.738 137.069 239.683 136.698 240.426 135.854C241.168 135.01 241.606 133.857 241.734 132.399C241.835 131.259 241.698 130.256 241.323 129.394C240.952 128.533 240.443 127.857 239.798 127.371C239.153 126.885 238.481 126.611 237.788 126.549L238.009 124.031C239.215 124.137 240.293 124.587 241.243 125.391C242.193 126.191 242.918 127.229 243.417 128.502C243.912 129.774 244.098 131.153 243.965 132.646C243.846 134.042 243.479 135.27 242.878 136.335C242.273 137.4 241.517 138.222 240.602 138.796C239.692 139.371 238.68 139.609 237.571 139.512C235.985 139.375 234.743 138.589 233.85 137.153C232.953 135.717 232.613 133.746 232.83 131.246L234.398 131.382L234.394 131.378Z" fill="black"/>
<path d="M238.665 148.679C239.059 149.664 239.368 150.884 239.589 152.333C239.81 153.782 239.642 155.404 239.09 157.197C238.621 158.717 237.954 159.937 237.092 160.851C236.226 161.766 235.219 162.362 234.07 162.64C232.921 162.919 231.657 162.848 230.292 162.424L215.422 157.847L216.151 155.474L231.021 160.051C232.448 160.493 233.69 160.383 234.741 159.724C235.793 159.066 236.544 158.006 236.991 156.548C237.3 155.545 237.45 154.591 237.446 153.694C237.441 152.792 237.335 151.971 237.132 151.224C236.929 150.477 236.712 149.837 236.478 149.298L238.665 148.675L238.665 148.679ZM223.23 145.374C222.426 145.657 221.741 146.156 221.175 146.863C220.61 147.57 220.185 148.379 219.903 149.293C219.509 150.57 219.399 151.794 219.571 152.96C219.744 154.127 220.199 155.143 220.932 156C221.666 156.857 222.687 157.489 223.995 157.891L222.457 158.019C221.118 157.608 220.031 156.897 219.191 155.89C218.352 154.882 217.817 153.703 217.583 152.351C217.349 150.999 217.463 149.576 217.923 148.087C218.307 146.841 218.9 145.75 219.704 144.818C220.508 143.881 221.493 143.227 222.656 142.856C223.818 142.48 225.148 142.525 226.637 142.984C228.126 143.444 229.262 144.208 230.049 145.282C230.835 146.355 231.29 147.628 231.418 149.099C231.547 150.57 231.361 152.125 230.853 153.769C230.459 155.046 229.973 156.084 229.395 156.888C228.816 157.692 228.241 158.311 227.671 158.752C227.101 159.194 226.646 159.495 226.297 159.654L224.839 159.203C225.74 158.549 226.54 157.754 227.243 156.822C227.945 155.89 228.515 154.71 228.957 153.278C229.333 152.063 229.474 150.919 229.39 149.841C229.306 148.767 228.984 147.844 228.422 147.071C227.861 146.298 227.048 145.75 225.983 145.423C224.949 145.105 224.03 145.087 223.226 145.374L223.23 145.374Z" fill="black"/>
<path d="M225.003 187.06L222.055 173.616L205.334 177.265L206.854 174.508L223.575 170.863L226.545 184.264L225.003 187.065L225.003 187.06ZM231.083 176.028L211.856 165.438L213.054 163.264L232.281 173.854L231.083 176.028Z" fill="black"/>
<path d="M218.154 192.69C218.123 193.755 217.924 194.992 217.549 196.41C217.173 197.828 216.378 199.251 215.158 200.678C214.124 201.888 213.028 202.741 211.875 203.236C210.717 203.731 209.555 203.881 208.388 203.678C207.222 203.475 206.095 202.909 205.003 201.981L193.174 191.877L194.787 189.99L206.616 200.095C207.752 201.067 208.936 201.455 210.16 201.27C211.389 201.084 212.498 200.408 213.488 199.246C214.168 198.447 214.685 197.634 215.039 196.808C215.392 195.977 215.622 195.182 215.732 194.417C215.843 193.653 215.896 192.977 215.896 192.389L218.154 192.685L218.154 192.69ZM205.299 183.531C204.447 183.474 203.625 183.659 202.82 184.083C202.021 184.507 201.309 185.082 200.686 185.806C199.82 186.823 199.232 187.901 198.927 189.04C198.622 190.18 198.636 191.289 198.967 192.372C199.298 193.45 199.988 194.435 201.026 195.323L199.564 194.828C198.499 193.918 197.783 192.836 197.412 191.581C197.04 190.326 197.018 189.027 197.341 187.693C197.663 186.359 198.335 185.099 199.347 183.915C200.196 182.921 201.172 182.157 202.281 181.618C203.39 181.079 204.553 180.871 205.768 180.991C206.983 181.11 208.185 181.675 209.369 182.687C210.553 183.699 211.296 184.852 211.588 186.151C211.884 187.445 211.795 188.797 211.331 190.198C210.867 191.599 210.076 192.955 208.958 194.258C208.092 195.274 207.23 196.034 206.378 196.542C205.525 197.051 204.751 197.391 204.053 197.572C203.355 197.749 202.816 197.846 202.431 197.85L201.269 196.861C202.356 196.618 203.408 196.207 204.424 195.632C205.441 195.058 206.435 194.201 207.403 193.061C208.229 192.093 208.817 191.099 209.166 190.079C209.515 189.058 209.586 188.082 209.378 187.154C209.17 186.222 208.64 185.395 207.796 184.671C206.974 183.968 206.139 183.588 205.286 183.531L205.299 183.531Z" fill="black"/>
<path d="M190.265 211.019C188.878 212.084 188.038 213.157 187.746 214.244C187.455 215.327 187.64 216.299 188.299 217.16C188.997 218.07 189.907 218.512 191.034 218.49C192.161 218.468 193.305 218.013 194.468 217.125C195.378 216.427 196.023 215.654 196.412 214.797C196.796 213.94 196.951 213.109 196.876 212.305C196.801 211.501 196.549 210.82 196.125 210.264L198.131 208.726C198.864 209.685 199.258 210.785 199.311 212.031C199.364 213.272 199.085 214.509 198.48 215.733C197.875 216.957 196.982 218.026 195.793 218.936C194.684 219.789 193.531 220.35 192.338 220.624C191.145 220.898 190.027 220.889 188.988 220.607C187.95 220.319 187.088 219.736 186.412 218.852C185.444 217.589 185.188 216.144 185.643 214.514C186.098 212.884 187.322 211.302 189.315 209.773L190.274 211.024L190.265 211.019ZM188.206 198.529C190.323 198.67 192.126 199.514 193.624 201.047L191.617 202.585C190.588 201.608 189.342 201.03 187.883 200.849C186.421 200.667 184.896 201.184 183.305 202.404C182.422 203.08 181.728 203.835 181.22 204.666C180.711 205.496 180.442 206.345 180.407 207.211C180.371 208.081 180.654 208.903 181.255 209.689C181.856 210.471 182.563 210.953 183.381 211.125C184.198 211.302 185.082 211.227 186.032 210.895C186.982 210.568 187.95 210.025 188.935 209.27L189.894 210.52C187.698 212.203 185.692 213.131 183.875 213.299C182.059 213.467 180.552 212.769 179.355 211.205C178.484 210.069 178.047 208.859 178.047 207.577C178.047 206.296 178.405 205.05 179.121 203.84C179.837 202.629 180.787 201.569 181.975 200.659C184.021 199.09 186.103 198.379 188.215 198.525L188.206 198.529Z" fill="black"/>
<path d="M180.385 225.848C179.926 226.807 179.232 227.854 178.313 228.994C177.393 230.133 176.086 231.105 174.389 231.91C172.952 232.59 171.605 232.921 170.345 232.904C169.086 232.886 167.964 232.546 166.983 231.883C166.002 231.22 165.202 230.244 164.587 228.954L157.924 214.9L160.164 213.835L166.828 227.889C167.469 229.241 168.388 230.08 169.581 230.412C170.778 230.743 172.064 230.58 173.443 229.926C174.393 229.475 175.197 228.945 175.856 228.331C176.514 227.717 177.053 227.085 177.464 226.431C177.875 225.777 178.202 225.185 178.441 224.646L180.381 225.839L180.385 225.848ZM172.396 212.235C171.644 211.833 170.814 211.666 169.908 211.723C169.002 211.78 168.118 212.015 167.256 212.425C166.05 213 165.074 213.742 164.327 214.657C163.58 215.571 163.142 216.592 163.001 217.714C162.864 218.836 163.089 220.016 163.673 221.249L162.541 220.201C161.941 218.938 161.728 217.657 161.905 216.358C162.082 215.059 162.59 213.866 163.43 212.783C164.269 211.696 165.396 210.822 166.806 210.155C167.986 209.593 169.192 209.297 170.42 209.258C171.653 209.218 172.798 209.501 173.863 210.11C174.923 210.716 175.789 211.723 176.457 213.132C177.124 214.542 177.327 215.898 177.067 217.202C176.806 218.505 176.174 219.702 175.175 220.789C174.177 221.876 172.904 222.79 171.348 223.528C170.142 224.098 169.046 224.443 168.061 224.558C167.075 224.673 166.231 224.668 165.52 224.549C164.813 224.425 164.283 224.293 163.929 224.142L163.275 222.764C164.366 222.985 165.493 223.042 166.656 222.932C167.818 222.821 169.073 222.446 170.425 221.805C171.574 221.262 172.519 220.595 173.253 219.804C173.987 219.013 174.45 218.151 174.641 217.219C174.831 216.287 174.689 215.315 174.212 214.308C173.748 213.331 173.142 212.642 172.387 212.24L172.396 212.235Z" fill="black"/>
<path d="M148.694 240.431L148.062 238.178L160.47 234.701L161.102 236.954L148.694 240.431ZM153.523 238.386L147.783 217.894L150.174 217.227L155.914 237.719L153.523 238.39L153.523 238.386Z" fill="black"/>
<path d="M140.265 241.934L137.843 220.117L140.309 219.843L142.73 241.66L140.265 241.934ZM140.441 233.561L134.131 234.259C131.886 234.507 129.938 234.171 128.281 233.252C126.628 232.333 125.669 230.703 125.408 228.361C125.236 226.81 125.444 225.494 126.027 224.402C126.61 223.311 127.476 222.467 128.625 221.857C129.774 221.248 131.109 220.863 132.624 220.696L138.935 219.997L139.178 222.18L132.867 222.878C131.763 223.002 130.817 223.276 130.03 223.695C129.244 224.12 128.661 224.694 128.276 225.427C127.892 226.156 127.759 227.044 127.874 228.087C128.042 229.603 128.669 230.694 129.752 231.361C130.835 232.024 132.213 232.262 133.888 232.077L140.198 231.379L140.441 233.561Z" fill="black"/>
<path d="M109.788 210.525L101.896 242L99.4877 241.395L107.38 209.92L109.788 210.525ZM86.8186 220.607C88.1487 219.171 89.7042 218.199 91.485 217.696C93.2703 217.192 95.1174 217.179 97.0308 217.66C98.8205 218.111 100.274 218.99 101.388 220.302C102.501 221.615 103.226 223.205 103.562 225.078C103.898 226.947 103.801 228.936 103.275 231.034C102.74 233.164 101.887 234.966 100.712 236.442C99.5363 237.918 98.1488 238.974 96.5491 239.605C94.9495 240.237 93.2526 240.33 91.4629 239.879C89.5495 239.402 87.9278 238.518 86.5933 237.233C85.2588 235.947 84.344 234.365 83.8491 232.488C83.3542 230.61 83.394 228.511 83.9729 226.196C84.5473 223.912 85.4974 222.052 86.8231 220.616L86.8186 220.607ZM86.2928 231.838C86.6993 233.349 87.4373 234.608 88.4934 235.611C89.554 236.614 90.8399 237.308 92.3511 237.683C93.6459 238.006 94.9804 237.931 96.3459 237.454C97.7113 236.977 98.9177 236.164 99.9605 235.015C101.003 233.866 101.737 232.444 102.161 230.747C102.585 229.05 102.612 227.447 102.232 225.944C101.856 224.438 101.176 223.152 100.199 222.087C99.2182 221.023 98.0825 220.329 96.7877 220.002C95.2765 219.622 93.8138 219.626 92.4086 220.011C90.999 220.395 89.7572 221.16 88.6879 222.299C87.6141 223.439 86.8452 224.937 86.3812 226.788C85.9172 228.64 85.8907 230.323 86.2972 231.834L86.2928 231.838Z" fill="black"/>
<path d="M77.1586 224.907L62.7264 217.285C62.0282 218.606 61.688 219.932 61.7101 221.253C61.7322 222.578 62.068 223.789 62.7264 224.893C63.3848 225.998 64.3482 226.881 65.612 227.553C66.8758 228.22 68.2015 228.543 69.5846 228.516C70.9677 228.49 72.2757 228.092 73.5086 227.323C74.7415 226.555 75.7623 225.41 76.5621 223.89L77.004 223.153C77.8657 221.522 78.3252 219.936 78.3827 218.403C78.4401 216.866 78.1131 215.491 77.4061 214.272C76.6991 213.053 75.6606 212.081 74.2819 211.352C73.0446 210.698 71.8957 210.336 70.8396 210.26C69.779 210.185 68.7892 210.291 67.8656 210.579C66.9421 210.866 66.0804 211.246 65.2894 211.727L64.1184 209.651C65.1436 209.076 66.2174 208.608 67.3398 208.25C68.4666 207.892 69.6995 207.769 71.0428 207.883C72.3862 207.998 73.9151 208.511 75.6297 209.417C77.3177 210.309 78.6125 211.55 79.5183 213.141C80.4242 214.732 80.8617 216.512 80.8308 218.474C80.7998 220.435 80.274 222.388 79.2488 224.328C79.0102 224.778 78.7627 225.194 78.5064 225.583C78.2501 225.967 77.9673 226.351 77.658 226.727C76.5311 228.039 75.2629 229.051 73.8444 229.758C72.426 230.465 70.9191 230.8 69.3195 230.765C67.7198 230.73 66.1467 230.301 64.6 229.484C62.912 228.591 61.604 227.39 60.676 225.874C59.7481 224.359 59.2796 222.68 59.262 220.837C59.2487 218.995 59.7525 217.104 60.7777 215.16C60.866 214.992 60.9677 214.82 61.0782 214.643C61.1886 214.466 61.3035 214.303 61.4184 214.148L78.1706 222.998L77.1675 224.898L77.1586 224.907Z" fill="black"/>
<path d="M46.1296 191.032L50.491 186.036L52.1437 187.48L49.32 190.714L63.0187 202.67L48.5821 219.207L46.7129 217.577L59.6117 202.802L50.8755 195.177L37.9766 209.951L36.1074 208.321L49.0063 193.546L46.1296 191.037L46.1296 191.032Z" fill="black"/>
<path d="M35.4835 193.939L25.9652 180.684C24.7499 181.555 23.8573 182.589 23.2829 183.782C22.7128 184.974 22.4742 186.211 22.5714 187.493C22.6686 188.774 23.137 189.998 23.9722 191.16C24.8074 192.322 25.8503 193.201 27.0964 193.793C28.3425 194.385 29.6903 194.61 31.1397 194.473C32.5891 194.336 34.0076 193.767 35.404 192.764L36.1287 192.3C37.6267 191.222 38.7447 190.011 39.4782 188.659C40.2118 187.312 40.5344 185.933 40.446 184.528C40.3576 183.123 39.8583 181.789 38.948 180.521C38.1305 179.385 37.2644 178.546 36.3496 178.007C35.4349 177.468 34.5025 177.123 33.5436 176.964C32.5891 176.81 31.6479 176.765 30.7243 176.845L30.6006 174.464C31.7716 174.406 32.9426 174.464 34.1092 174.645C35.2758 174.826 36.4336 175.268 37.5869 175.966C38.7359 176.668 39.8804 177.808 41.0116 179.381C42.1252 180.932 42.7306 182.62 42.8278 184.449C42.9294 186.278 42.5273 188.063 41.6214 189.808C40.72 191.553 39.3766 193.064 37.5914 194.345C37.1804 194.641 36.7694 194.906 36.3673 195.136C35.9652 195.366 35.541 195.582 35.0991 195.781C33.5083 196.453 31.9175 196.793 30.3311 196.793C28.7447 196.793 27.2466 196.422 25.8282 195.68C24.4097 194.933 23.1945 193.85 22.1737 192.428C21.0601 190.877 20.4282 189.216 20.2736 187.449C20.1189 185.681 20.4459 183.967 21.2546 182.31C22.0632 180.653 23.358 179.187 25.1432 177.905C25.2979 177.795 25.4658 177.684 25.6426 177.578C25.8193 177.472 25.9961 177.375 26.1684 177.287L37.2157 192.675L35.4703 193.926L35.4835 193.939Z" fill="black"/>
<path d="M26.3545 152.4L27.3178 154.684L9.24879 162.31L13.7605 172.993L31.8295 165.367L32.7928 167.652L12.5674 176.187L6.12903 160.932L26.3545 152.396L26.3545 152.4Z" fill="black"/>
<path d="M1.45898 142.393L3.73915 141.868L6.63797 154.42L4.3578 154.945L1.45898 142.393ZM3.27958 147.311L24.0176 142.526L24.5744 144.943L3.83637 149.727L3.27958 147.311Z" fill="black"/>
</g>
<defs>
<clipPath id="clip0_1_121">
<rect width="242" height="244" fill="white" transform="translate(0 242) rotate(-90)"/>
</clipPath>
</defs>
</svg>
