<svg width="338" height="338" viewBox="0 0 338 338" fill="none" xmlns="http://www.w3.org/2000/svg">
<path d="M337 168.5C337 177.311 330.46 185.509 329.131 193.95C327.768 202.614 331.444 212.422 328.794 220.586C326.098 228.892 317.338 234.667 313.422 242.338C309.464 250.094 309.914 260.562 304.829 267.553C299.744 274.543 289.608 277.361 283.484 283.489C277.361 289.612 274.568 299.723 267.548 304.833C260.529 309.944 250.09 309.468 242.334 313.426C234.579 317.384 228.888 326.103 220.581 328.799C212.275 331.495 202.61 327.772 193.946 329.135C185.504 330.46 177.311 337.004 168.496 337.004C159.68 337.004 151.487 330.464 143.046 329.135C134.382 327.772 124.574 331.448 116.41 328.799C108.104 326.103 102.329 317.342 94.6574 313.426C86.9859 309.51 76.4334 309.918 69.4432 304.833C62.4236 299.723 59.6351 289.612 53.5072 283.489C47.3834 277.365 37.2725 274.572 32.1623 267.553C27.0522 260.533 27.5275 250.094 23.5697 242.338C19.6541 234.667 10.8932 228.892 8.19725 220.586C5.54755 212.422 9.22349 202.614 7.86078 193.95C6.49808 185.286 0 177.311 0 168.5C0 159.689 6.54014 151.491 7.86919 143.05C9.2319 134.386 5.55596 124.578 8.20566 116.414C10.8554 108.251 19.6625 102.333 23.5781 94.6616C27.4938 86.9901 27.0858 76.4376 32.1707 69.4474C37.2556 62.4573 47.3918 59.6393 53.5156 53.5114C59.6393 47.3876 62.432 37.2767 69.4516 32.1665C76.4376 27.0816 86.9102 27.5317 94.6658 23.5739C102.337 19.6583 108.112 10.8974 116.419 8.20146C124.582 5.55176 134.39 9.22769 143.054 7.86499C151.719 6.50228 159.689 0 168.5 0C177.311 0 185.509 6.54014 193.95 7.86919C202.614 9.2319 212.422 5.55596 220.586 8.20566C228.749 10.8554 234.667 19.6625 242.338 23.5781C250.094 27.5359 260.562 27.0858 267.553 32.1707C274.543 37.2556 277.361 47.3918 283.489 53.5156C289.612 59.6393 299.723 62.432 304.833 69.4516C309.918 76.4376 309.468 86.9102 313.426 94.6658C317.342 102.337 326.103 108.112 328.799 116.419C331.448 124.582 327.772 134.39 329.135 143.054C330.498 151.719 337.004 159.689 337.004 168.504L337 168.5Z" fill="#00F1D4"/>
</svg>
