<svg width="70" height="70" viewBox="0 0 70 70" fill="none" xmlns="http://www.w3.org/2000/svg">
<g id="Vector" filter="url(#filter0_d_305_27)">
<path d="M62.9993 32.9996C62.9993 34.4638 61.9125 35.826 61.6917 37.2286C61.4652 38.6684 62.0761 40.2982 61.6358 41.6547C61.1878 43.035 59.732 43.9946 59.0813 45.2694C58.4237 46.5581 58.4984 48.2977 57.6535 49.4592C56.8085 50.6208 55.1242 51.089 54.1066 52.1073C53.089 53.1249 52.625 54.805 51.4585 55.6542C50.2921 56.5033 48.5574 56.4244 47.2687 57.082C45.9799 57.7397 45.0343 59.1885 43.654 59.6365C42.2737 60.0844 40.6677 59.4659 39.2279 59.6924C37.8253 59.9125 36.4638 61 34.9989 61C33.5341 61 32.1726 59.9132 30.77 59.6924C29.3302 59.4659 27.7004 60.0768 26.3439 59.6365C24.9636 59.1885 24.004 57.7327 22.7292 57.082C21.4545 56.4314 19.7009 56.4991 18.5394 55.6542C17.3729 54.805 16.9096 53.1249 15.8913 52.1073C14.8737 51.0897 13.1936 50.6257 12.3444 49.4592C11.4953 48.2928 11.5742 46.5581 10.9166 45.2694C10.2659 43.9946 8.81013 43.035 8.36214 41.6547C7.92184 40.2982 8.53267 38.6684 8.30623 37.2286C8.07979 35.7889 7 34.4638 7 32.9996C7 31.5355 8.08677 30.1733 8.30762 28.7707C8.53406 27.3309 7.92323 25.7011 8.36354 24.3446C8.80384 22.988 10.2673 22.0047 10.918 20.7299C11.5686 19.4552 11.5009 17.7016 12.3458 16.5401C13.1908 15.3785 14.8751 14.9103 15.8927 13.892C16.9103 12.8744 17.3743 11.1943 18.5408 10.3451C19.7016 9.50016 21.4419 9.57494 22.7306 8.91728C24.0054 8.26661 24.965 6.81083 26.3453 6.36284C27.7018 5.92254 29.3316 6.53337 30.7714 6.30693C32.2111 6.08048 33.5355 5 34.9996 5C36.4638 5 37.826 6.08677 39.2286 6.30762C40.6684 6.53406 42.2982 5.92323 43.6547 6.36354C45.0113 6.80384 45.9946 8.26731 47.2694 8.91798C48.5581 9.57564 50.2977 9.50085 51.4592 10.3458C52.6208 11.1908 53.089 12.8751 54.1073 13.8927C55.1249 14.9103 56.805 15.3743 57.6542 16.5408C58.4991 17.7016 58.4244 19.4419 59.082 20.7306C59.7327 22.0054 61.1885 22.965 61.6365 24.3453C62.0768 25.7018 61.4659 27.3316 61.6924 28.7714C61.9188 30.2111 63 31.5355 63 33.0003L62.9993 32.9996Z" fill="#FAFAFE"/>
</g>
<defs>
<filter id="filter0_d_305_27" x="0" y="0" width="70" height="70" filterUnits="userSpaceOnUse" color-interpolation-filters="sRGB">
<feFlood flood-opacity="0" result="BackgroundImageFix"/>
<feColorMatrix in="SourceAlpha" type="matrix" values="0 0 0 0 0 0 0 0 0 0 0 0 0 0 0 0 0 0 127 0" result="hardAlpha"/>
<feOffset dy="2"/>
<feGaussianBlur stdDeviation="3.5"/>
<feComposite in2="hardAlpha" operator="out"/>
<feColorMatrix type="matrix" values="0 0 0 0 0 0 0 0 0 0 0 0 0 0 0 0 0 0 0.2 0"/>
<feBlend mode="normal" in2="BackgroundImageFix" result="effect1_dropShadow_305_27"/>
<feBlend mode="normal" in="SourceGraphic" in2="effect1_dropShadow_305_27" result="shape"/>
</filter>
</defs>
</svg>
